<svg width="416" height="134" viewBox="0 0 416 134" fill="none" xmlns="http://www.w3.org/2000/svg">
<rect width="133.037" height="133.037" rx="10" fill="url(#paint0_linear_93_73)"/>
<path fill-rule="evenodd" clip-rule="evenodd" d="M22.6406 66.5102C22.6406 43.0846 42.2524 24.0863 66.454 24.0586V39.3986C50.998 39.4194 38.488 51.5514 38.488 66.5102C38.488 81.4692 51.0335 93.6357 66.518 93.6357C82.0026 93.6357 94.5339 81.6078 94.5339 66.4132L110.388 66.4272C110.388 89.9638 90.7553 108.976 66.518 108.976C42.2809 108.976 22.6406 89.9566 22.6406 66.5102ZM47.1544 66.5097C47.1544 56.1098 55.8786 47.6778 66.6166 47.6778C77.3548 47.6778 86.0862 56.1098 86.0862 66.5097C86.0862 76.9095 77.3618 85.3417 66.6166 85.3417C55.8714 85.3417 47.1544 76.9167 47.1544 66.5097ZM91.2663 31.8612C85.1109 31.8612 80.1155 36.6904 80.1155 42.656C80.1155 48.6146 85.104 53.4576 91.2663 53.4576C97.4289 53.4576 102.424 48.6215 102.424 42.656C102.424 36.6904 97.4216 31.8612 91.2663 31.8612Z" fill="url(#paint1_linear_93_73)"/>
<path d="M181.456 63.816H187.36V81H182.224V79.032C179.824 80.664 176.816 81.48 173.2 81.48C170.096 81.48 167.248 80.808 164.656 79.464C162.064 78.12 159.984 76.168 158.416 73.608C156.88 71.048 156.112 67.992 156.112 64.44C156.112 61.08 156.896 58.072 158.464 55.416C160.032 52.728 162.192 50.648 164.944 49.176C167.728 47.672 170.848 46.92 174.304 46.92C177.12 46.92 179.68 47.384 181.984 48.312C184.288 49.24 186.224 50.6 187.792 52.392L183.856 56.232C181.296 53.672 178.208 52.392 174.592 52.392C172.224 52.392 170.112 52.904 168.256 53.928C166.432 54.92 164.992 56.328 163.936 58.152C162.912 59.976 162.4 62.056 162.4 64.392C162.4 66.856 162.912 68.984 163.936 70.776C164.992 72.536 166.384 73.88 168.112 74.808C169.84 75.704 171.728 76.152 173.776 76.152C175.216 76.152 176.592 75.928 177.904 75.48C179.248 75.032 180.432 74.376 181.456 73.512V63.816ZM220.07 55.368V81H214.358V77.688C213.366 78.904 212.134 79.816 210.662 80.424C209.222 81.032 207.622 81.336 205.862 81.336C203.366 81.336 201.126 80.792 199.142 79.704C197.19 78.616 195.654 77.08 194.534 75.096C193.446 73.112 192.902 70.808 192.902 68.184C192.902 65.56 193.446 63.272 194.534 61.32C195.654 59.336 197.19 57.8 199.142 56.712C201.126 55.624 203.366 55.08 205.862 55.08C207.526 55.08 209.046 55.368 210.422 55.944C211.83 56.52 213.046 57.368 214.07 58.488V55.368H220.07ZM206.534 76.2C208.742 76.2 210.566 75.464 212.006 73.992C213.446 72.52 214.166 70.584 214.166 68.184C214.166 65.784 213.446 63.848 212.006 62.376C210.566 60.904 208.742 60.168 206.534 60.168C204.326 60.168 202.502 60.904 201.062 62.376C199.654 63.848 198.95 65.784 198.95 68.184C198.95 70.584 199.654 72.52 201.062 73.992C202.502 75.464 204.326 76.2 206.534 76.2ZM225.28 90.648C222.752 90.648 220.832 90.152 219.52 89.16L221.248 84.696C222.144 85.368 223.312 85.704 224.752 85.704C225.872 85.704 226.72 85.352 227.296 84.648C227.904 83.976 228.208 82.968 228.208 81.624V55.368H234.208V81.48C234.208 84.328 233.424 86.568 231.856 88.2C230.288 89.832 228.096 90.648 225.28 90.648ZM231.184 51.144C230.096 51.144 229.184 50.808 228.448 50.136C227.712 49.432 227.344 48.568 227.344 47.544C227.344 46.52 227.712 45.672 228.448 45C229.184 44.296 230.096 43.944 231.184 43.944C232.272 43.944 233.184 44.28 233.92 44.952C234.656 45.592 235.024 46.408 235.024 47.4C235.024 48.456 234.656 49.352 233.92 50.088C233.216 50.792 232.304 51.144 231.184 51.144ZM242.077 55.368H248.077V81H242.077V55.368ZM245.101 51.144C244.013 51.144 243.101 50.808 242.365 50.136C241.629 49.432 241.261 48.568 241.261 47.544C241.261 46.52 241.629 45.672 242.365 45C243.101 44.296 244.013 43.944 245.101 43.944C246.189 43.944 247.101 44.28 247.837 44.952C248.573 45.592 248.941 46.408 248.941 47.4C248.941 48.456 248.573 49.352 247.837 50.088C247.133 50.792 246.221 51.144 245.101 51.144ZM280.336 63.528C282.192 64.136 283.664 65.16 284.752 66.6C285.84 68.008 286.384 69.768 286.384 71.88C286.384 74.792 285.264 77.048 283.024 78.648C280.784 80.216 277.52 81 273.232 81H256.528V47.4H272.272C276.24 47.4 279.296 48.184 281.44 49.752C283.584 51.288 284.656 53.416 284.656 56.136C284.656 57.8 284.272 59.272 283.504 60.552C282.736 61.832 281.68 62.824 280.336 63.528ZM262.768 52.296V61.56H271.6C273.776 61.56 275.44 61.176 276.592 60.408C277.776 59.608 278.368 58.456 278.368 56.952C278.368 55.416 277.776 54.264 276.592 53.496C275.44 52.696 273.776 52.296 271.6 52.296H262.768ZM272.848 76.104C277.68 76.104 280.096 74.488 280.096 71.256C280.096 68.024 277.68 66.408 272.848 66.408H262.768V76.104H272.848ZM304.659 76.248C307.443 76.248 309.763 75.32 311.619 73.464L314.787 77.16C313.667 78.536 312.227 79.576 310.467 80.28C308.707 80.984 306.723 81.336 304.515 81.336C301.699 81.336 299.219 80.776 297.075 79.656C294.931 78.536 293.267 76.984 292.083 75C290.931 72.984 290.355 70.712 290.355 68.184C290.355 65.688 290.915 63.448 292.035 61.464C293.187 59.448 294.755 57.88 296.739 56.76C298.755 55.64 301.027 55.08 303.555 55.08C305.955 55.08 308.131 55.608 310.083 56.664C312.067 57.688 313.635 59.176 314.787 61.128C315.939 63.048 316.515 65.304 316.515 67.896L296.883 71.736C297.491 73.208 298.467 74.328 299.811 75.096C301.155 75.864 302.771 76.248 304.659 76.248ZM303.555 59.88C301.347 59.88 299.555 60.6 298.179 62.04C296.835 63.48 296.163 65.416 296.163 67.848V67.896L310.659 65.112C310.243 63.544 309.395 62.28 308.115 61.32C306.867 60.36 305.347 59.88 303.555 59.88ZM327.992 59.112C329.72 56.424 332.76 55.08 337.112 55.08V60.792C336.6 60.696 336.136 60.648 335.72 60.648C333.384 60.648 331.56 61.336 330.248 62.712C328.936 64.056 328.28 66.008 328.28 68.568V81H322.28V55.368H327.992V59.112ZM350.215 81.336C348.135 81.336 346.103 81.064 344.119 80.52C342.135 79.976 340.551 79.288 339.367 78.456L341.671 73.896C342.823 74.664 344.199 75.288 345.799 75.768C347.431 76.216 349.031 76.44 350.599 76.44C354.183 76.44 355.975 75.496 355.975 73.608C355.975 72.712 355.511 72.088 354.583 71.736C353.687 71.384 352.231 71.048 350.215 70.728C348.103 70.408 346.375 70.04 345.031 69.624C343.719 69.208 342.567 68.488 341.575 67.464C340.615 66.408 340.135 64.952 340.135 63.096C340.135 60.664 341.143 58.728 343.159 57.288C345.207 55.816 347.959 55.08 351.415 55.08C353.175 55.08 354.935 55.288 356.695 55.704C358.455 56.088 359.895 56.616 361.015 57.288L358.711 61.848C356.535 60.568 354.087 59.928 351.367 59.928C349.607 59.928 348.263 60.2 347.335 60.744C346.439 61.256 345.991 61.944 345.991 62.808C345.991 63.768 346.471 64.456 347.431 64.872C348.423 65.256 349.943 65.624 351.991 65.976C354.039 66.296 355.719 66.664 357.031 67.08C358.343 67.496 359.463 68.2 360.391 69.192C361.351 70.184 361.831 71.592 361.831 73.416C361.831 75.816 360.791 77.736 358.711 79.176C356.631 80.616 353.799 81.336 350.215 81.336ZM366.999 55.368H372.999V81H366.999V55.368ZM370.023 51.144C368.935 51.144 368.023 50.808 367.287 50.136C366.551 49.432 366.183 48.568 366.183 47.544C366.183 46.52 366.551 45.672 367.287 45C368.023 44.296 368.935 43.944 370.023 43.944C371.111 43.944 372.023 44.28 372.759 44.952C373.495 45.592 373.863 46.408 373.863 47.4C373.863 48.456 373.495 49.352 372.759 50.088C372.055 50.792 371.143 51.144 370.023 51.144ZM395.418 55.08C398.65 55.08 401.242 56.024 403.194 57.912C405.146 59.8 406.122 62.6 406.122 66.312V81H400.122V67.08C400.122 64.84 399.594 63.16 398.538 62.04C397.482 60.888 395.978 60.312 394.026 60.312C391.818 60.312 390.074 60.984 388.794 62.328C387.514 63.64 386.874 65.544 386.874 68.04V81H380.874V45.384H386.874V58.344C387.866 57.288 389.082 56.488 390.522 55.944C391.994 55.368 393.626 55.08 395.418 55.08Z" fill="white"/>
<defs>
<linearGradient id="paint0_linear_93_73" x1="67.8227" y1="-16.9557" x2="109.56" y2="237.379" gradientUnits="userSpaceOnUse">
<stop stop-color="#B0DB9C"/>
<stop offset="1" stop-color="#537D5D"/>
</linearGradient>
<linearGradient id="paint1_linear_93_73" x1="44.3447" y1="-14.3464" x2="109.559" y2="166.949" gradientUnits="userSpaceOnUse">
<stop stop-color="white"/>
<stop offset="1" stop-color="#C2FFC7"/>
</linearGradient>
</defs>
</svg>
