<svg width="251" height="242" viewBox="0 0 251 242" fill="none" xmlns="http://www.w3.org/2000/svg">
<path fill-rule="evenodd" clip-rule="evenodd" d="M0 120.98C0 54.221 56.0989 0.0789816 125.327 0V43.7164C81.1154 43.7757 45.3311 78.3502 45.3311 120.98C45.3311 163.611 81.217 198.283 125.51 198.283C169.803 198.283 205.649 164.006 205.649 120.704L251 120.744C251 187.819 194.84 242 125.51 242C56.1804 242 0 187.799 0 120.98ZM70.1209 120.979C70.1209 91.3407 95.0763 67.3109 125.792 67.3109C156.509 67.3109 181.484 91.3407 181.484 120.979C181.484 150.617 156.528 174.647 125.792 174.647C95.0556 174.647 70.1209 150.637 70.1209 120.979ZM196.302 22.2361C178.695 22.2361 164.405 35.9987 164.405 52.9996C164.405 69.9807 178.675 83.7825 196.302 83.7825C213.93 83.7825 228.219 70.0004 228.219 52.9996C228.219 35.9987 213.909 22.2361 196.302 22.2361Z" fill="white"/>
</svg>
