<svg width="137" height="137" viewBox="0 0 137 137" fill="none" xmlns="http://www.w3.org/2000/svg">
<rect width="137" height="137" rx="10" fill="url(#paint0_linear_90_47)"/>
<path fill-rule="evenodd" clip-rule="evenodd" d="M23.3164 68.4896C23.3164 44.3662 43.5124 24.802 68.4349 24.7734V40.5704C52.5185 40.5918 39.6359 53.0853 39.6359 68.4896C39.6359 83.8943 52.5551 96.4233 68.5009 96.4233C84.4468 96.4233 97.3514 84.037 97.3514 68.3898L113.678 68.4042C113.678 92.6419 93.4602 112.22 68.5009 112.22C43.5417 112.22 23.3164 92.6346 23.3164 68.4896ZM48.5604 68.4891C48.5604 57.7794 57.5445 49.0962 68.6024 49.0962C79.6606 49.0962 88.652 57.7794 88.652 68.4891C88.652 79.1988 79.6677 87.8821 68.6024 87.8821C57.5371 87.8821 48.5604 79.2061 48.5604 68.4891ZM93.9864 32.8085C87.6477 32.8085 82.5034 37.7816 82.5034 43.9249C82.5034 50.061 87.6405 55.0483 93.9864 55.0483C100.333 55.0483 105.477 50.0681 105.477 43.9249C105.477 37.7816 100.325 32.8085 93.9864 32.8085Z" fill="url(#paint1_linear_90_47)"/>
<defs>
<linearGradient id="paint0_linear_90_47" x1="69.8431" y1="-17.4608" x2="112.824" y2="244.451" gradientUnits="userSpaceOnUse">
<stop stop-color="#B0DB9C"/>
<stop offset="1" stop-color="#537D5D"/>
</linearGradient>
<linearGradient id="paint1_linear_90_47" x1="45.667" y1="-14.7757" x2="112.824" y2="171.92" gradientUnits="userSpaceOnUse">
<stop stop-color="white"/>
<stop offset="1" stop-color="#C2FFC7"/>
</linearGradient>
</defs>
</svg>
